D:\school\WTK\thesis\model\3dpredictsim\Results\debug_tmt\Pog_s1_tmt_bCst_d02_k800_kc1_t5_ig24_pas_v2_GRF.mot
nRows=20
nColumns=19

name D:\school\WTK\thesis\model\3dpredictsim\Results\debug_tmt\Pog_s1_tmt_bCst_d02_k800_kc1_t5_ig24_pas_v2_GRF.mot
datacolumns 19
datarows 20
range 0.5357668150 0.7393582046
endheader
time 	ground_force_vx	ground_force_vy	ground_force_vz	ground_force_px	ground_force_py	ground_force_pz	1_ground_force_vx	1_ground_force_vy	1_ground_force_vz	1_ground_force_px	1_ground_force_py	1_ground_force_pz	ground_torque_x	ground_torque_y	ground_torque_z	1_ground_torque_x	1_ground_torque_y	1_ground_torque_z
        0.5357668150	       60.3516817806	      386.1250900336	       -7.0645993404	        0.3214196914	        0.0000000000	        0.0552452136	      -59.2206590722	       45.2527768146	       -1.3530078469	        0.8237700598	        0.0000000000	       -0.0694812987	        0.0000000000	        0.0000000000	        0.0000000000	        0.0000000000	        0.0000000000	        0.0000000000	
        0.5464821513	       21.2804212670	      282.0626145341	        4.0336209094	        0.3457790210	        0.0000000000	        0.0534376727	     -156.5226687588	      150.3157217258	       -3.2037418517	        0.8402354149	        0.0000000000	       -0.0713588651	        0.0000000000	        0.0000000000	        0.0000000000	        0.0000000000	        0.0000000000	        0.0000000000	
        0.5571974876	        1.5804744314	      215.6168294254	       17.2273997517	        0.3636732151	        0.0000000000	        0.0503219432	      -95.4668179304	      477.3241545841	       13.4330891498	        0.8580109069	        0.0000000000	       -0.0698253850	        0.0000000000	        0.0000000000	        0.0000000000	        0.0000000000	        0.0000000000	        0.0000000000	
        0.5679128239	        0.3454092069	      179.6103283803	       26.5646900929	        0.3635305087	        0.0000000000	        0.0510716650	     -154.3564790256	      921.7670508387	       17.9574394416	        0.8688890618	        0.0000000000	       -0.0668939762	        0.0000000000	        0.0000000000	        0.0000000000	        0.0000000000	        0.0000000000	        0.0000000000	
        0.5786281602	       -1.4292878025	      134.4978969920	       29.6831821264	        0.3638539310	        0.0000000000	        0.0514681983	     -170.0442743771	     1064.6787150507	       19.1629118692	        0.8730079767	        0.0000000000	       -0.0661095704	        0.0000000000	        0.0000000000	        0.0000000000	        0.0000000000	        0.0000000000	        0.0000000000	
        0.5893434965	       -6.1876713236	       84.4994774348	       22.0094402252	        0.3638956350	        0.0000000000	        0.0512412183	     -155.1457784731	     1014.5926190564	       18.6865961232	        0.8770756380	        0.0000000000	       -0.0660864286	        0.0000000000	        0.0000000000	        0.0000000000	        0.0000000000	        0.0000000000	        0.0000000000	
        0.6000588328	       -4.8138790164	       28.1493762908	        6.9753583465	        0.3641724756	        0.0000000000	        0.0503468481	     -136.6729140957	      932.8229863843	       17.9362238773	        0.8821285013	        0.0000000000	       -0.0663007129	        0.0000000000	        0.0000000000	        0.0000000000	        0.0000000000	        0.0000000000	        0.0000000000	
        0.6107741691	        0.1651079711	       -0.1683873902	        0.0058334327	        0.0000000000	        0.0000000000	        0.0000000000	     -124.3563065151	      876.3160159718	       19.8545097706	        0.8875220605	        0.0000000000	       -0.0664490199	        0.0000000000	        0.0000000000	        0.0000000000	        0.0000000000	        0.0000000000	        0.0000000000	
        0.6214895054	        0.0003260353	       -0.0002667348	        0.0000479041	        0.0000000000	        0.0000000000	        0.0000000000	     -112.6737466854	      838.6493732884	       22.6214014405	        0.8927318193	        0.0000000000	       -0.0665030416	        0.0000000000	        0.0000000000	        0.0000000000	        0.0000000000	        0.0000000000	        0.0000000000	
        0.6322048416	        0.0011059440	       -0.0007977162	        0.0001913158	        0.0000000000	        0.0000000000	        0.0000000000	     -101.5207411033	      803.2192361163	       23.8871901945	        0.8975959449	        0.0000000000	       -0.0665199362	        0.0000000000	        0.0000000000	        0.0000000000	        0.0000000000	        0.0000000000	        0.0000000000	
        0.6429201779	        0.0213815249	       -0.0138699162	        0.0041045430	        0.0000000000	        0.0000000000	        0.0000000000	      -90.8269772098	      769.4025195487	       24.6137571846	        0.9019082783	        0.0000000000	       -0.0665137793	        0.0000000000	        0.0000000000	        0.0000000000	        0.0000000000	        0.0000000000	        0.0000000000	
        0.6536355142	       -0.2381257490	        0.1417046653	       -0.0473852698	        0.0000000000	        0.0000000000	        0.0000000000	      -79.6440349327	      736.7133875057	       25.0188246906	        0.9056371352	        0.0000000000	       -0.0665261894	        0.0000000000	        0.0000000000	        0.0000000000	        0.0000000000	        0.0000000000	        0.0000000000	
        0.6643508505	       -0.5600833416	        0.3118023587	       -0.1135363588	        0.0000000000	        0.0000000000	        0.0000000000	      -68.5946778522	      704.9608033648	       25.1758761204	        0.9088689039	        0.0000000000	       -0.0665663070	        0.0000000000	        0.0000000000	        0.0000000000	        0.0000000000	        0.0000000000	        0.0000000000	
        0.6750661868	       -0.4181754690	        0.2183819246	       -0.0829784315	        0.0000000000	        0.0000000000	        0.0000000000	      -58.2701778638	      675.5855566954	       25.1222134982	        0.9116141015	        0.0000000000	       -0.0666477953	        0.0000000000	        0.0000000000	        0.0000000000	        0.0000000000	        0.0000000000	        0.0000000000	
        0.6857815231	       -0.3072951740	        0.1517440220	       -0.0599304382	        0.0000000000	        0.0000000000	        0.0000000000	      -48.6092071726	      650.0454525456	       24.8938703844	        0.9139217957	        0.0000000000	       -0.0667667102	        0.0000000000	        0.0000000000	        0.0000000000	        0.0000000000	        0.0000000000	        0.0000000000	
        0.6964968594	       -0.2567867441	        0.1208125815	       -0.0484677350	        0.0000000000	        0.0000000000	        0.0000000000	      -39.8172230907	      626.8198675357	       24.1574656288	        0.9160489639	        0.0000000000	       -0.0669025126	        0.0000000000	        0.0000000000	        0.0000000000	        0.0000000000	        0.0000000000	        0.0000000000	
        0.7072121957	       -0.2487672868	        0.1122948999	       -0.0445681420	        0.0000000000	        0.0000000000	        0.0000000000	      -32.3590744159	      605.0638767085	       22.8779309247	        0.9180938675	        0.0000000000	       -0.0670351364	        0.0000000000	        0.0000000000	        0.0000000000	        0.0000000000	        0.0000000000	        0.0000000000	
        0.7179275320	       -0.2749813344	        0.1197068968	       -0.0461025988	        0.0000000000	        0.0000000000	        0.0000000000	      -25.5104405571	      585.7492998831	       21.6944040776	        0.9200399311	        0.0000000000	       -0.0671580451	        0.0000000000	        0.0000000000	        0.0000000000	        0.0000000000	        0.0000000000	        0.0000000000	
        0.7286428683	       -0.3294461583	        0.1389740871	       -0.0510820892	        0.0000000000	        0.0000000000	        0.0000000000	      -19.6204348128	      568.4963220156	       20.6621500134	        0.9219173968	        0.0000000000	       -0.0672500068	        0.0000000000	        0.0000000000	        0.0000000000	        0.0000000000	        0.0000000000	        0.0000000000	
        0.7393582046	       -0.4111394728	        0.1687843312	       -0.0581042774	        0.0000000000	        0.0000000000	        0.0000000000	      -14.9988059376	      552.8788074712	       19.6367965638	        0.9236762936	        0.0000000000	       -0.0673316336	        0.0000000000	        0.0000000000	        0.0000000000	        0.0000000000	        0.0000000000	        0.0000000000	
